<?xml version="1.0" encoding="utf-8"?>
<svg xmlns="http://www.w3.org/2000/svg" xmlns:xlink="http://www.w3.org/1999/xlink" style="margin: auto; background: none; display: block; shape-rendering: auto; animation-play-state: running; animation-delay: 0s;" width="100px" height="100px" viewBox="0 0 100 100" preserveAspectRatio="xMidYMid">
<g transform="translate(50 50)" style="animation-play-state: running; animation-delay: 0s;">
<g style="animation-play-state: running; animation-delay: 0s;">
<animateTransform attributeName="transform" type="rotate" values="0;25.714285714285715" keyTimes="0;1" dur="0.2s" repeatCount="indefinite" style="animation-play-state: running; animation-delay: 0s;"></animateTransform><path d="M21.90890230020665 -37 L21.90890230020665 -37 L21.90890230020665 37 L21.90890230020665 37 A43 43 0 0 1 35.79293724975154 -23.829931662414577 L35.79293724975154 -23.829931662414577 L35.79293724975154 -23.829931662414577 L3.68554055505224 42.84176456236443 L3.68554055505224 42.84176456236443 A43 43 0 0 1 42.58774200541529 -5.940053104155351 L42.58774200541529 -5.940053104155351 L42.58774200541529 -5.940053104155351 L-15.267787697218907 40.198192233390934 L-15.267787697218907 40.198192233390934 A43 43 0 0 1 40.9475221525271 13.126325821352385 L40.9475221525271 13.126325821352385 L40.9475221525271 13.126325821352385 L-31.19714334892784 29.592874934119653 L-31.19714334892784 29.592874934119653 A43 43 0 0 1 31.197143348927845 29.592874934119646 L31.197143348927845 29.592874934119646 L31.197143348927845 29.592874934119646 L-40.9475221525271 13.12632582135239 L-40.9475221525271 13.12632582135239 A43 43 0 0 1 15.26778769721891 40.198192233390934 L15.26778769721891 40.198192233390934 L15.26778769721891 40.198192233390934 L-42.58774200541529 -5.940053104155345 L-42.58774200541529 -5.940053104155345 A43 43 0 0 1 -3.685540555052235 42.84176456236444 L-3.685540555052235 42.84176456236444 L-3.685540555052235 42.84176456236444 L-35.792937249751546 -23.829931662414573 L-35.792937249751546 -23.829931662414573 A43 43 0 0 1 -21.90890230020664 37 L-21.90890230020664 37 L-21.90890230020664 37 L-21.908902300206652 -36.99999999999999 L-21.908902300206652 -36.99999999999999 A43 43 0 0 1 -35.79293724975153 23.829931662414584 L-35.79293724975153 23.829931662414584 L-35.79293724975153 23.829931662414584 L-3.685540555052246 -42.84176456236443 L-3.685540555052246 -42.84176456236443 A43 43 0 0 1 -42.58774200541529 5.940053104155355 L-42.58774200541529 5.940053104155355 L-42.58774200541529 5.940053104155355 L15.267787697218901 -40.198192233390934 L15.267787697218901 -40.198192233390934 A43 43 0 0 1 -40.94752215252711 -13.12632582135238 L-40.94752215252711 -13.12632582135238 L-40.94752215252711 -13.12632582135238 L31.19714334892784 -29.592874934119656 L31.19714334892784 -29.592874934119656 A43 43 0 0 1 -31.19714334892785 -29.592874934119646 L-31.19714334892785 -29.592874934119646 L-31.19714334892785 -29.592874934119646 L40.9475221525271 -13.126325821352394 L40.9475221525271 -13.126325821352394 A43 43 0 0 1 -15.267787697218916 -40.19819223339093 L-15.267787697218916 -40.19819223339093 L-15.267787697218916 -40.19819223339093 L42.58774200541529 5.940053104155339 L42.58774200541529 5.940053104155339 A43 43 0 0 1 3.6855405550522295 -42.84176456236444 L3.6855405550522295 -42.84176456236444 L3.6855405550522295 -42.84176456236444 L35.792937249751546 23.829931662414566 L35.792937249751546 23.829931662414566 A43 43 0 0 1 21.908902300206638 -37.00000000000001 M0 -39A39 39 0 1 0 0 39 A39 39 0 1 0 0 -39" fill="#9f1720" style="animation-play-state: running; animation-delay: 0s;"></path></g></g>
<!-- [ldio] generated by https://loading.io/ --></svg>